<svg xmlns="http://www.w3.org/2000/svg" width="24" height="24" viewBox="0 0 24 24">
  <g id="Group_100" data-name="Group 100" transform="translate(-1268 -231)">
    <rect id="Rectangle_493" data-name="Rectangle 493" width="24" height="24" transform="translate(1268 231)" fill="none"/>
    <g id="Group_99" data-name="Group 99" transform="translate(1171.8 94.674)">
      <path id="logo" d="M116.915,141.782a11.461,11.461,0,0,0-5.452-2.182l-.263.533a10.556,10.556,0,0,1,5.175,2.738,16.43,16.43,0,0,0-16.365,0,10.781,10.781,0,0,1,5.175-2.738l-.263-.533a11.394,11.394,0,0,0-5.452,2.182s-2.79,4.05-3.27,12a10.285,10.285,0,0,0,7.087,3.27l.893-1.193a10.891,10.891,0,0,1-4.71-3.172,15.323,15.323,0,0,0,17.46,0,10.891,10.891,0,0,1-4.71,3.172l.893,1.193a10.285,10.285,0,0,0,7.087-3.27C119.7,145.832,116.915,141.782,116.915,141.782ZM104.637,151.6a2.2,2.2,0,1,1,1.912-2.182,2.059,2.059,0,0,1-1.912,2.182Zm7.1,0a2.2,2.2,0,1,1,1.912-2.182,2.059,2.059,0,0,1-1.912,2.182Z" fill="#393939"/>
    </g>
  </g>
</svg>
