<svg xmlns="http://www.w3.org/2000/svg" xmlns:xlink="http://www.w3.org/1999/xlink" width="1932.827" height="717" viewBox="0 0 1932.827 717">
  <defs>
    <linearGradient id="linear-gradient" y1="0.5" x2="1" y2="0.5" gradientUnits="objectBoundingBox">
      <stop offset="0" stop-color="#fff"/>
      <stop offset="1" stop-color="#fff" stop-opacity="0.302"/>
    </linearGradient>
  </defs>
  <g id="Group_66" data-name="Group 66" transform="translate(12.827 -61)">
    <g id="Group_57" data-name="Group 57">
      <circle id="Ellipse_30" data-name="Ellipse 30" cx="6.511" cy="6.511" r="6.511" transform="translate(1491 92.414)" fill="#e6e6e6"/>
      <circle id="Ellipse_38" data-name="Ellipse 38" cx="6.511" cy="6.511" r="6.511" transform="translate(1824 282)" fill="#e6e6e6"/>
      <circle id="Ellipse_34" data-name="Ellipse 34" cx="6.511" cy="6.511" r="6.511" transform="translate(887.441 105.436)" fill="#e6e6e6"/>
      <circle id="Ellipse_37" data-name="Ellipse 37" cx="6.511" cy="6.511" r="6.511" transform="translate(614.274 106.521)" fill="#e6e6e6"/>
      <circle id="Ellipse_31" data-name="Ellipse 31" cx="6.511" cy="6.511" r="6.511" transform="translate(1086.339 117.48)" fill="#e6e6e6"/>
      <circle id="Ellipse_35" data-name="Ellipse 35" cx="6.511" cy="6.511" r="6.511" transform="translate(430.133 221.252)" fill="#e6e6e6"/>
      <circle id="Ellipse_40" data-name="Ellipse 40" cx="6.511" cy="6.511" r="6.511" transform="translate(208.83 412.734)" fill="#e6e6e6"/>
      <circle id="Ellipse_32" data-name="Ellipse 32" cx="6.511" cy="6.511" r="6.511" transform="translate(780.979 168.615)" fill="#3da1ce"/>
      <circle id="Ellipse_39" data-name="Ellipse 39" cx="6.511" cy="6.511" r="6.511" transform="translate(277.93 104.334)" fill="#3da1ce"/>
      <circle id="Ellipse_36" data-name="Ellipse 36" cx="6.511" cy="6.511" r="6.511" transform="translate(168.807 167.014)" fill="#3da1ce"/>
      <circle id="Ellipse_33" data-name="Ellipse 33" cx="6.511" cy="6.511" r="6.511" transform="translate(1260.979 190.075)" fill="#3da1ce"/>
      <path id="Path_112" data-name="Path 112" d="M495.9,245.093l-3.25,3.228-3.228-3.25-2.166,2.152,3.227,3.249-3.249,3.228,2.151,2.167,3.25-3.228,3.228,3.25,2.166-2.152-3.227-3.25,3.249-3.227Z" transform="translate(798 -133)" fill="#e6e6e6"/>
      <path id="Path_135" data-name="Path 135" d="M495.9,245.093l-3.25,3.228-3.228-3.25-2.166,2.152,3.227,3.249-3.249,3.228,2.151,2.167,3.25-3.228,3.228,3.25,2.166-2.152-3.227-3.25,3.249-3.227Z" transform="translate(154.829 -62.208)" fill="#e6e6e6"/>
      <path id="Path_141" data-name="Path 141" d="M495.9,245.093l-3.25,3.228-3.228-3.25-2.166,2.152,3.227,3.249-3.249,3.228,2.151,2.167,3.25-3.228,3.228,3.25,2.166-2.152-3.227-3.25,3.249-3.227Z" transform="translate(-384.247 -135.328)" fill="#e6e6e6"/>
      <path id="Path_139" data-name="Path 139" d="M495.9,245.093l-3.25,3.228-3.228-3.25-2.166,2.152,3.227,3.249-3.249,3.228,2.151,2.167,3.25-3.228,3.228,3.25,2.166-2.152-3.227-3.25,3.249-3.227Z" transform="translate(-420.985 119.792)" fill="#e6e6e6"/>
      <path id="Path_136" data-name="Path 136" d="M495.9,245.093l-3.25,3.228-3.228-3.25-2.166,2.152,3.227,3.249-3.249,3.228,2.151,2.167,3.25-3.228,3.228,3.25,2.166-2.152-3.227-3.25,3.249-3.227Z" transform="translate(263.829 -137.449)" fill="#e6e6e6"/>
      <path id="Path_140" data-name="Path 140" d="M495.9,245.093l-3.25,3.228-3.228-3.25-2.166,2.152,3.227,3.249-3.249,3.228,2.151,2.167,3.25-3.228,3.228,3.25,2.166-2.152-3.227-3.25,3.249-3.227Z" transform="translate(-10.481 55.396)" fill="#e6e6e6"/>
      <path id="Path_133" data-name="Path 133" d="M495.9,245.093l-3.25,3.228-3.228-3.25-2.166,2.152,3.227,3.249-3.249,3.228,2.151,2.167,3.25-3.228,3.228,3.25,2.166-2.152-3.227-3.25,3.249-3.227Z" transform="translate(924.354 -45.071)" fill="#e6e6e6"/>
      <path id="Path_137" data-name="Path 137" d="M495.9,245.093l-3.25,3.228-3.228-3.25-2.166,2.152,3.227,3.249-3.249,3.228,2.151,2.167,3.25-3.228,3.228,3.25,2.166-2.152-3.227-3.25,3.249-3.227Z" transform="translate(1146.354 93.929)" fill="#e6e6e6"/>
      <path id="Path_138" data-name="Path 138" d="M495.9,245.093l-3.25,3.228-3.228-3.25-2.166,2.152,3.227,3.249-3.249,3.228,2.151,2.167,3.25-3.228,3.228,3.25,2.166-2.152-3.227-3.25,3.249-3.227Z" transform="translate(1368.354 -146.146)" fill="#e6e6e6"/>
      <path id="Path_134" data-name="Path 134" d="M495.9,245.093l-3.25,3.228-3.228-3.25-2.166,2.152,3.227,3.249-3.249,3.228,2.151,2.167,3.25-3.228,3.228,3.25,2.166-2.152-3.227-3.25,3.249-3.227Z" transform="translate(521.354 -87.274)" fill="#e6e6e6"/>
    </g>
    <g id="Group_61" data-name="Group 61">
      <g id="Group_52" data-name="Group 52">
        <circle id="Ellipse_25" data-name="Ellipse 25" cx="66.193" cy="66.193" r="66.193" transform="translate(1653.329 98.925)" fill="#dedede" stroke="rgba(0,0,0,0.15)" stroke-width="1"/>
        <circle id="Ellipse_26" data-name="Ellipse 26" cx="7.596" cy="7.596" r="7.596" transform="translate(1705.415 111.946)" fill="#cbcbcb"/>
        <circle id="Ellipse_27" data-name="Ellipse 27" cx="7.596" cy="7.596" r="7.596" transform="translate(1718.437 187.905)" fill="#cbcbcb"/>
        <circle id="Ellipse_28" data-name="Ellipse 28" cx="5.426" cy="5.426" r="5.426" transform="translate(1749.905 147.755)" fill="#cbcbcb"/>
        <circle id="Ellipse_29" data-name="Ellipse 29" cx="17.362" cy="17.362" r="17.362" transform="translate(1676.117 153.181)" fill="#cbcbcb"/>
      </g>
      <rect id="Rectangle_301" data-name="Rectangle 301" width="66" height="66" transform="translate(216 712)" fill="none"/>
    </g>
    <rect id="Rectangle_296" data-name="Rectangle 296" width="1920" height="479" transform="translate(0 61)" fill="none"/>
    <rect id="Rectangle_284" data-name="Rectangle 284" width="200.86" height="21.69" rx="9.96" transform="translate(1594.15 215.097)" fill="#f2f2f2" stroke="rgba(0,0,0,0.15)" stroke-width="1"/>
    <rect id="Rectangle_286" data-name="Rectangle 286" width="200.86" height="21.69" rx="9.96" transform="translate(1562.81 249.637)" fill="#f2f2f2" stroke="rgba(0,0,0,0.15)" stroke-width="1"/>
    <rect id="Rectangle_285" data-name="Rectangle 285" width="200.86" height="21.69" rx="9.96" transform="translate(1639.14 233.577)" fill="#f2f2f2" stroke="rgba(0,0,0,0.15)" stroke-width="1"/>
    <rect id="Rectangle_287" data-name="Rectangle 287" width="200.86" height="21.69" rx="9.96" transform="translate(108.4 271.327)" fill="#f2f2f2" stroke="rgba(0,0,0,0.15)" stroke-width="1"/>
    <rect id="Rectangle_289" data-name="Rectangle 289" width="200.86" height="21.69" rx="9.96" transform="translate(77.07 305.877)" fill="#f2f2f2" stroke="rgba(0,0,0,0.15)" stroke-width="1"/>
    <rect id="Rectangle_288" data-name="Rectangle 288" width="200.86" height="21.69" rx="9.96" transform="translate(153.4 289.807)" fill="#f2f2f2" stroke="rgba(0,0,0,0.15)" stroke-width="1"/>
    <rect id="Rectangle_281" data-name="Rectangle 281" width="200.86" height="21.69" rx="9.96" transform="translate(385.6 142.423)" fill="#f2f2f2" stroke="rgba(0,0,0,0.15)" stroke-width="1"/>
    <rect id="Rectangle_283" data-name="Rectangle 283" width="200.86" height="21.69" rx="9.96" transform="translate(354.26 176.973)" fill="#f2f2f2" stroke="rgba(0,0,0,0.15)" stroke-width="1"/>
    <rect id="Rectangle_282" data-name="Rectangle 282" width="200.86" height="21.69" rx="9.96" transform="translate(430.59 160.903)" fill="#f2f2f2" stroke="rgba(0,0,0,0.15)" stroke-width="1"/>
    <g id="Group_64" data-name="Group 64" transform="translate(-179.19 24.08)">
      <path id="Path_148" data-name="Path 148" d="M750.165,85.7l12.414-9.928c-9.643-1.064-13.606,4.2-15.227,8.358-7.534-3.128-15.735.972-15.735.972l24.837,9.017a18.8,18.8,0,0,0-6.288-8.418Z" transform="translate(-426.21 223.813)" fill="#3f3d56"/>
      <path id="Path_165" data-name="Path 165" d="M750.165,85.7l12.414-9.928c-9.643-1.064-13.606,4.2-15.227,8.358-7.534-3.128-15.735.972-15.735.972l24.837,9.017a18.8,18.8,0,0,0-6.288-8.418Z" transform="translate(185.79 57.547)" fill="#3f3d56"/>
      <path id="Path_164" data-name="Path 164" d="M750.165,85.7l12.414-9.928c-9.643-1.064-13.606,4.2-15.227,8.358-7.534-3.128-15.735.972-15.735.972l24.837,9.017a18.8,18.8,0,0,0-6.288-8.418Z" transform="translate(788.611 204.453)" fill="#3f3d56"/>
    </g>
    <path id="Path_114" data-name="Path 114" d="M633.2,585.887l32.971-38.6,32.971-38.6L717.75,486.9c1.03-1.206-.559-3.086-1.589-1.881l-32.971,38.6-32.971,38.6-18.612,21.789c-1.03,1.206.559,3.086,1.589,1.881Z" transform="translate(-44.646 -622.874) rotate(45)" opacity="0.8" fill="url(#linear-gradient)"/>
  </g>
</svg>
