<svg xmlns="http://www.w3.org/2000/svg" width="24" height="24" viewBox="0 0 24 24">
  <g id="Group_99" data-name="Group 99" transform="translate(-1016 -528)">
    <rect id="Rectangle_494" data-name="Rectangle 494" width="24" height="24" transform="translate(1016 528)" fill="none"/>
    <g id="Symbol" transform="translate(1004.8 517.7)">
      <g id="Group_98" data-name="Group 98" transform="translate(11.2 10.3)">
        <path id="Path_182" data-name="Path 182" d="M15.341,10.929a6.155,6.155,0,0,0-3.512,3.508,8.778,8.778,0,0,0-.556,2.913c-.059,1.278-.073,1.688-.073,4.947s.015,3.669.073,4.947a8.9,8.9,0,0,0,.556,2.913,6.145,6.145,0,0,0,3.512,3.513,8.773,8.773,0,0,0,2.912.556c1.278.059,1.688.073,4.946.073s3.668-.015,4.946-.073a8.9,8.9,0,0,0,2.912-.556,6.145,6.145,0,0,0,3.512-3.513,8.778,8.778,0,0,0,.556-2.913c.059-1.278.073-1.688.073-4.947s-.015-3.669-.073-4.947a8.9,8.9,0,0,0-.556-2.913,6.128,6.128,0,0,0-3.507-3.508,8.773,8.773,0,0,0-2.912-.556c-1.278-.059-1.688-.073-4.946-.073s-3.668.015-4.946.073A8.656,8.656,0,0,0,15.341,10.929Zm12.707,1.6a6.609,6.609,0,0,1,2.229.415,3.97,3.97,0,0,1,2.278,2.279,6.613,6.613,0,0,1,.415,2.23c.059,1.264.068,1.644.068,4.85s-.015,3.586-.068,4.85a6.613,6.613,0,0,1-.415,2.23,3.97,3.97,0,0,1-2.278,2.279,6.609,6.609,0,0,1-2.229.415c-1.263.059-1.644.068-4.849.068s-3.585-.015-4.849-.068a6.609,6.609,0,0,1-2.229-.415,3.97,3.97,0,0,1-2.278-2.279,6.613,6.613,0,0,1-.415-2.23c-.059-1.264-.068-1.644-.068-4.85s.015-3.586.068-4.85a6.613,6.613,0,0,1,.415-2.23,3.97,3.97,0,0,1,2.278-2.279,6.609,6.609,0,0,1,2.229-.415c1.263-.059,1.644-.068,4.849-.068S26.785,12.471,28.049,12.53Z" transform="translate(-11.2 -10.3)" fill="#fff"/>
        <path id="Path_183" data-name="Path 183" d="M130.9,136.162A6.161,6.161,0,1,0,137.061,130,6.162,6.162,0,0,0,130.9,136.162Zm10.161,0a4,4,0,1,1-4-4A4,4,0,0,1,141.061,136.162Z" transform="translate(-125.061 -124.16)" fill="#fff"/>
        <ellipse id="Ellipse_56" data-name="Ellipse 56" cx="1.439" cy="1.439" rx="1.439" ry="1.439" transform="translate(16.971 4.157)" fill="#fff"/>
      </g>
    </g>
  </g>
</svg>
