<svg xmlns="http://www.w3.org/2000/svg" width="190" height="71" viewBox="0 0 190 71">
  <g id="Group_91" data-name="Group 91" transform="translate(-651 -1383)">
    <rect id="Rectangle_399" data-name="Rectangle 399" width="71" height="71" transform="translate(651 1383)" fill="none"/>
    <rect id="Rectangle_400" data-name="Rectangle 400" width="119" height="71" transform="translate(722 1383)" fill="none"/>
    <g id="Group_90" data-name="Group 90" transform="translate(-18 -204)">
      <g id="Subtraction_32" data-name="Subtraction 32" transform="translate(681 1599)" fill="none">
        <path d="M17,30H4a4,4,0,0,1-4-4V4A4,4,0,0,1,4,0H26a4,4,0,0,1,4,4V30H28V4a2,2,0,0,0-2-2H4A2,2,0,0,0,2,4V26a2,2,0,0,0,2,2H17v2Z" stroke="none"/>
        <path d="M 17.00010108947754 30.00069999694824 L 16.99909973144531 30.00069999694824 L 3.999600172042847 29.99970054626465 C 1.794210314750671 29.99970054626465 2.731323149873788e-07 28.20549011230469 2.731323149873788e-07 26.00009918212891 L 2.731323149873788e-07 3.999599933624268 C 2.731323149873788e-07 1.794209957122803 1.794210314750671 -1.525879866903779e-09 3.999600172042847 -1.525879866903779e-09 L 26.00010108947754 -1.525879866903779e-09 C 28.20549011230469 -1.525879866903779e-09 29.99970054626465 1.794209957122803 29.99970054626465 3.999599933624268 L 29.99970054626465 29.99869918823242 L 27.99990081787109 29.99970054626465 L 27.99990081787109 27.99990081787109 L 27.99990081787109 3.999599933624268 C 27.99990081787109 2.896909952163696 27.10279083251953 1.999799966812134 26.00010108947754 1.999799966812134 L 3.999600172042847 1.999799966812134 C 2.896910190582275 1.999799966812134 1.999800324440002 2.896909952163696 1.999800324440002 3.999599933624268 L 1.999800324440002 26.00009918212891 C 1.999800324440002 27.10279083251953 2.896910190582275 27.99990081787109 3.999600172042847 27.99990081787109 L 17.00010108947754 27.99990081787109 L 17.00010108947754 29.99970054626465 L 17.00010108947754 30.00069999694824 Z" stroke="none" fill="#3da1ce"/>
      </g>
      <g id="Subtraction_31" data-name="Subtraction 31" transform="translate(698 1616)" fill="#fff">
        <path d="M26,30H4a4,4,0,0,1-4-4V0H2V26a2,2,0,0,0,2,2H26a2,2,0,0,0,2-2V4a2,2,0,0,0-2-2H13V0H26a4,4,0,0,1,4,4V26A4,4,0,0,1,26,30Z" stroke="none"/>
        <path d="M 26.00010108947754 29.99970054626465 L 3.999600172042847 29.99970054626465 C 1.794210314750671 29.99970054626465 2.731323149873788e-07 28.20549011230469 2.731323149873788e-07 26.00010108947754 L 2.731323149873788e-07 6.02111811076611e-07 L 1.998800277709961 -0.000919397862162441 L 1.999800324440002 1.999800562858582 L 1.999800324440002 25.99920082092285 C 1.999800324440002 27.10289001464844 2.896910190582275 28.00080108642578 3.999600172042847 28.00080108642578 L 25.99920082092285 28.00080108642578 C 27.10239028930664 28.00080108642578 27.99990081787109 27.10289001464844 27.99990081787109 25.99920082092285 L 27.99990081787109 3.999600648880005 C 27.99990081787109 2.896910667419434 27.10239028930664 1.999800562858582 25.99920082092285 1.999800562858582 L 12.99960041046143 1.999800562858582 L 12.99960041046143 0.0009006020845845342 L 5.372820377349854 0.001210602116771042 L 26.00010108947754 6.02111811076611e-07 C 28.20549011230469 6.02111811076611e-07 29.99970054626465 1.794620633125305 29.99970054626465 4.000500679016113 L 29.99970054626465 26.00010108947754 C 29.99970054626465 28.20549011230469 28.20549011230469 29.99970054626465 26.00010108947754 29.99970054626465 Z" stroke="none" fill="#3da1ce"/>
      </g>
      <path id="Path_176" data-name="Path 176" d="M0,0H6A2,2,0,0,1,8,2V6A2,2,0,0,1,6,8H2A2,2,0,0,1,0,6Z" transform="translate(709 1627)" fill="#3da1ce"/>
      <path id="Path_177" data-name="Path 177" d="M2,0H6A2,2,0,0,1,8,2V8H2A2,2,0,0,1,0,6V2A2,2,0,0,1,2,0Z" transform="translate(692 1610)" fill="#3da1ce"/>
    </g>
    <text id="BLUFFS" transform="translate(734 1429)" fill="#3da1ce" font-size="26" font-family="Merienda-Regular_0_wt, Merienda"><tspan x="0" y="0">BLUFFS</tspan></text>
  </g>
</svg>
